<?xml version="1.0" encoding="utf-8"?>
<!-- Generator: Adobe Illustrator 22.0.1, SVG Export Plug-In . SVG Version: 6.00 Build 0)  -->
<svg version="1.1" baseProfile="tiny" id="Ebene_1" xmlns="http://www.w3.org/2000/svg"
     x="0px" y="0px" width="21px" height="13px" viewBox="0 0 21 13" xml:space="preserve">
    <g>
        <linearGradient id="SVGID_1_" x1="5.8739409" y1="3.7935982" x2="-12.5010595"
                        y2="-6.9564018">
            <stop offset="0" style="stop-color:#868686"/>
            <stop offset="0.4129062" style="stop-color:#59585A"/>
            <stop offset="1" style="stop-color:#000000"/>
        </linearGradient>
        <path fill="url(#SVGID_1_)" d="M0,1.40625v10.1875C0,12.3704004,0.6295996,13,1.40625,13h18.1875
            C20.3704014,13,21,12.3704004,21,11.59375V1.40625C21,0.6295996,20.3704014,0,19.59375,0H1.40625
            C0.6295996,0,0,0.6295996,0,1.40625z M19.4765625,12H3L8,1h11.4765625C19.7656498,1,20,1.2343509,20,1.5234375v9.953125
            C20,11.7656488,19.7656498,12,19.4765625,12z"/>
        <linearGradient id="SVGID_2_" x1="25" y1="6.5026665" x2="0.4144069" y2="6.5026665">
            <stop offset="0" style="stop-color:#FFCB69"/>
            <stop offset="1" style="stop-color:#FF3E00"/>
        </linearGradient>
        <polygon fill="url(#SVGID_2_)" points="4.7199998,11.0053329 19,11.0053329 19,2 8.8133335,2     "/>
        <g>
            <path fill="#FFFFFF" d="M13.7399998,11.0100002l1.9012127-2.7153244l-1.821701-2.5567422h1.7024336l0.9333792,1.4497628
                l0.9828529-1.4497628h1.638382l-1.7872467,2.4971089l1.9506874,2.7749577h-1.7125931l-1.0720825-1.6335239l-1.082243,1.6335239
                H13.7399998z"/>
        </g>
        <g>
            <path fill="#FFFFFF" d="M12.3449802,11.0810547h-1.4400167V5.6543169C10.3787518,6.1463304,9.758605,6.5102105,9.04498,6.7459574
                V5.4390898c0.3757362-0.1231174,0.7838469-0.3561282,1.2243338-0.6994886
                c0.4409428-0.3433604,0.7432642-0.7437198,0.9074202-1.2015338h1.1682463V11.0810547z"/>
        </g>
    </g>
</svg>
